<?xml version="1.0" standalone="no"?>
<!DOCTYPE svg PUBLIC "-//W3C//DTD SVG 20010904//EN"
 "http://www.w3.org/TR/2001/REC-SVG-20010904/DTD/svg10.dtd">
<svg version="1.0" xmlns="http://www.w3.org/2000/svg"
 width="120.000000pt" height="120.000000pt" viewBox="0 0 120.000000 120.000000"
 preserveAspectRatio="xMidYMid meet">

<g transform="translate(0.000000,120.000000) scale(0.100000,-0.100000)"
fill="#000000" stroke="none">
<path d="M0 600 l0 -600 600 0 600 0 0 600 0 600 -600 0 -600 0 0 -600z m629
498 c11 -10 12 -10 7 -1 -4 8 6 5 23 -5 30 -16 30 -17 8 -23 l-22 -5 23 -13
c30 -16 21 -26 -10 -11 -23 11 -23 11 -3 -7 11 -11 26 -30 34 -43 l14 -25 -24
22 c-20 17 -31 20 -64 14 l-40 -7 32 -8 c57 -13 57 -31 0 -29 -29 1 -41 -1
-27 -4 43 -8 49 -26 8 -21 -21 2 -38 1 -38 -3 0 -9 38 -19 72 -19 15 0 30 -4
33 -10 8 -13 60 -7 80 10 14 12 20 10 40 -16 13 -16 27 -42 31 -59 3 -16 15
-45 26 -62 l20 -33 -34 6 c-18 4 -37 11 -42 15 -37 34 -58 -25 -25 -70 19 -25
27 -30 54 -25 28 4 33 1 48 -31 18 -38 23 -115 7 -115 -5 0 -6 7 -3 17 4 10 2
14 -4 10 -6 -4 -14 -1 -16 5 -4 8 -6 7 -6 -4 -1 -11 -7 -15 -21 -11 -21 6 -22
30 -1 25 6 -1 11 4 11 11 0 27 -14 27 -43 0 -17 -16 -27 -22 -23 -15 7 11 -12
18 -38 13 -6 -1 -21 0 -34 4 -19 5 -22 8 -12 20 17 20 0 19 -44 -2 -19 -9 -33
-20 -30 -24 2 -5 16 -3 29 3 25 11 55 -2 55 -23 0 -9 -67 -2 -83 8 -5 3 -15
-3 -23 -13 -14 -18 -15 -18 -9 3 5 18 3 22 -9 17 -9 -3 -16 -10 -16 -15 0 -5
-15 -9 -34 -9 -19 0 -36 -4 -38 -9 -1 -5 -12 2 -22 17 -11 14 -15 22 -9 19 7
-5 9 1 5 15 -5 21 -4 22 13 8 17 -14 18 -14 6 9 -13 24 -11 119 3 151 10 23
-29 23 -50 -1 -16 -17 -16 -19 -1 -19 10 0 17 -4 17 -10 0 -13 -45 -24 -62
-15 -7 4 -1 -3 14 -16 32 -27 47 -82 27 -94 -9 -6 -11 -3 -6 8 15 39 -39 95
-66 68 -7 -7 -5 -22 8 -51 17 -37 33 -47 68 -41 4 0 7 -11 7 -25 0 -22 -4 -25
-27 -22 -23 3 -31 12 -50 63 -20 50 -22 64 -12 85 7 14 11 32 10 41 -1 9 8 34
21 55 14 24 17 34 8 29 -40 -25 -45 -11 -10 30 9 11 22 40 29 64 7 25 24 59
37 76 13 18 24 39 24 48 0 16 10 21 36 18 6 -1 25 15 43 34 33 37 75 46 100
23z m96 -48 c3 -5 2 -10 -4 -10 -5 0 -13 5 -16 10 -3 6 -2 10 4 10 5 0 13 -4
16 -10z m83 -358 c2 -7 -3 -12 -10 -12 -8 0 -15 7 -15 15 0 18 19 15 25 -3z
m-433 -42 c3 -5 1 -10 -4 -10 -6 0 -11 5 -11 10 0 6 2 10 4 10 3 0 8 -4 11
-10z m130 -129 c3 -5 1 -12 -5 -16 -5 -3 -10 1 -10 9 0 18 6 21 15 7z m198
-34 c29 -9 42 -8 58 1 18 11 23 11 35 -5 17 -23 18 -63 2 -63 -9 0 -8 -4 2
-10 12 -8 12 -10 1 -10 -8 0 -11 -7 -8 -20 9 -35 -52 -26 -114 17 -30 20 -56
35 -59 32 -5 -4 -17 41 -19 73 -1 14 3 15 32 6 17 -5 49 -15 70 -21z m-242
-45 c26 -34 56 -58 110 -85 118 -61 117 -60 108 -82 -4 -11 -8 -31 -8 -44 -1
-24 -1 -24 21 -5 21 19 21 19 13 -1 -5 -11 -8 -41 -8 -67 0 -41 -3 -48 -19
-48 -26 0 -87 32 -186 97 -46 30 -99 57 -118 60 l-34 6 41 44 c41 45 41 45 36
109 -2 35 -2 64 2 63 3 0 22 -21 42 -47z m289 -216 c0 -8 12 -24 27 -35 14
-12 24 -23 22 -24 -2 -2 -21 -15 -42 -31 -21 -15 -41 -25 -44 -22 -3 3 2 25
11 49 9 24 14 51 10 61 -3 9 -1 16 5 16 6 0 11 -6 11 -14z"/>
<path d="M565 1080 c-3 -5 -1 -10 4 -10 6 0 11 5 11 10 0 6 -2 10 -4 10 -3 0
-8 -4 -11 -10z"/>
<path d="M596 1068 c3 -5 10 -6 15 -3 5 4 9 1 9 -5 0 -6 5 -8 10 -5 15 9 2 24
-20 22 -10 -1 -16 -5 -14 -9z"/>
<path d="M588 1033 c7 -3 16 -2 19 1 4 3 -2 6 -13 5 -11 0 -14 -3 -6 -6z"/>
<path d="M470 985 c-13 -14 -19 -25 -14 -25 5 0 -2 -9 -15 -19 -28 -21 -21
-47 9 -31 28 15 31 13 18 -15 -9 -19 -14 -22 -20 -13 -7 10 -9 9 -5 -2 7 -29
31 -15 40 23 6 26 14 37 23 33 8 -3 14 -1 14 3 0 5 -5 11 -12 13 -7 3 -5 13 7
34 l19 29 -23 -22 c-25 -26 -40 -31 -21 -8 22 26 5 26 -20 0z"/>
<path d="M597 766 c-62 -19 -97 -44 -97 -69 0 -5 11 -6 25 -3 15 4 25 2 25 -5
0 -15 45 -7 46 9 3 23 4 24 19 12 28 -24 18 -40 -26 -40 -36 0 -40 -2 -29 -15
15 -18 55 -13 89 13 40 30 61 124 27 121 -6 -1 -42 -11 -79 -23z"/>
<path d="M370 760 c-14 -10 -23 -21 -20 -23 3 -3 16 3 29 14 31 25 23 33 -9 9z"/>
<path d="M697 425 c-4 -8 -2 -17 3 -20 6 -4 10 3 10 14 0 25 -6 27 -13 6z"/>
<path d="M735 430 c3 -5 10 -10 16 -10 5 0 9 5 9 10 0 6 -7 10 -16 10 -8 0
-12 -4 -9 -10z"/>
</g>
</svg>
